<?xml version="1.0" encoding="UTF-8"?>
<svg width="22px" height="30px" viewBox="0 0 22 30" version="1.1" xmlns="http://www.w3.org/2000/svg" xmlns:xlink="http://www.w3.org/1999/xlink">
    <!-- Generator: Sketch 52 (66869) - http://www.bohemiancoding.com/sketch -->
    <title>Path</title>
    <desc>Created with Sketch.</desc>
    <g id="Page-1" stroke="none" stroke-width="1" fill="none" fill-rule="evenodd">
        <g id="noun_Arrow_2723582" transform="translate(-1.000000, 0.000000)" fill="#FFFFFF">
            <path d="M12,0.13 C11.4477153,0.13 11,0.57771525 11,1.13 L11,26.63 L2.67,19.13 C2.40383714,18.8906321 2.03019123,18.8114431 1.68981107,18.922263 C1.34943092,19.0330828 1.09402836,19.3170752 1.01981107,19.667263 C0.945593785,20.0174508 1.06383714,20.3806321 1.33,20.62 L11.33,29.62 C11.4025054,29.6911503 11.4871777,29.7487275 11.58,29.79 C11.6995212,29.8446813 11.8286496,29.8752643 11.96,29.88 C12.0906773,29.87842 12.2197777,29.851241 12.34,29.8 L12.44,29.73 C12.5085841,29.7032616 12.5726622,29.6661638 12.63,29.62 L22.63,20.62 C22.8961629,20.3806321 23.0144062,20.0174508 22.9401889,19.667263 C22.8659716,19.3170752 22.6105691,19.0330828 22.2701889,18.922263 C21.9298088,18.8114431 21.5561629,18.8906321 21.29,19.13 L13,26.63 L13,1.13 C13,0.57771525 12.5522847,0.13 12,0.13 Z" id="Path"></path>
        </g>
    </g>
</svg>