
<svg width="543px" height="630px" viewBox="0 0 543 630" version="1.1" xmlns="http://www.w3.org/2000/svg" xmlns:xlink="http://www.w3.org/1999/xlink">
    <g id="Home-page" stroke="none" stroke-width="1" fill="none" fill-rule="evenodd">
        <g id="Home-Page_1800px" transform="translate(-70.000000, -4215.000000)">
            <g id="HOLY-HEMP" transform="translate(-1.000000, 4155.000000)">
                <g id="left_panel" transform="translate(0.413613, 0.000000)">
                    <g id="holy_hemp" transform="translate(70.000000, 47.833333)">
                        <polyline id="stem" stroke="#04D9AC" stroke-width="5" stroke-linecap="round" points="272.086387 638.555556 272.086387 500.229526 272.086387 444.555556"></polyline>
                        <g id="leaves" transform="translate(85.643721, 158.666667)" fill="#04D9AC">
                            <path d="M211.897112,138.460137 L187.985577,257.909681 C187.515721,260.252329 184.368724,260.252329 183.900956,257.909681 L159.988377,138.460137 C159.93095,138.172988 159.927818,137.878078 159.977936,137.590929 L183.886338,1.80937122 C184.311297,-0.60312374 187.566883,-0.60312374 187.990798,1.80937122 L211.906509,137.590929 C211.957671,137.879187 211.954539,138.174097 211.897112,138.460137" id="Fill-3"></path>
                            <path d="M325.712034,69.7122234 L270.85147,187.671566 C270.73233,187.926718 270.568907,188.155246 270.368582,188.344947 L201.768891,253.334575 L193.475439,261.192171 C191.784275,262.795196 189.211681,260.82941 190.138448,258.640643 L194.68266,247.903149 L232.234096,159.157689 C232.343747,158.899208 232.49979,158.664024 232.693789,158.466558 L322.350793,67.142946 C324.048283,65.413454 326.749506,67.4801914 325.712034,69.7122234" id="Fill-5"></path>
                            <path d="M370.667028,206.855164 L286.846593,256.470133 C286.595993,256.617784 286.320123,256.711036 286.034775,256.742121 L206.942046,265.506781 L195.854575,266.73572 C193.592858,266.986615 192.611517,263.803806 194.58157,262.60484 L204.235987,256.727689 L273.117293,214.79831 C273.365787,214.64733 273.640605,214.550746 273.924899,214.515221 L369.390864,202.714292 C371.676799,202.431203 372.673934,205.6673 370.667028,206.855164" id="Fill-7"></path>
                            <path d="M330.681795,319.826917 L263.468954,314.778314 C263.150894,314.75386 262.841259,314.653821 262.565326,314.485979 L204.659429,279.201336 L195.001776,273.315745 C193.032331,272.116397 194.012841,268.928507 196.27507,269.180826 L207.363993,270.410187 L273.85646,277.786349 C274.17452,277.820807 274.479942,277.93196 274.750609,278.109806 L331.944557,315.722009 C333.809737,316.949146 332.873461,319.991424 330.681795,319.826917" id="Fill-10"></path>
                            <path d="M257.532512,376.324853 L217.069192,341.409265 C216.813544,341.18814 216.610069,340.905899 216.475463,340.585879 L194.631656,288.338062 L190.136427,277.587368 C189.219225,275.393893 191.765269,273.424877 193.43898,275.031647 L201.648929,282.903266 L241.551911,321.162403 C241.796081,321.397974 241.984947,321.690215 242.102858,322.016902 L260.79437,373.801356 C261.56027,375.923715 259.191615,377.757167 257.532512,376.324853" id="Fill-12"></path>
                            <path d="M47.1737109,69.7122234 L102.03319,187.671566 C102.153385,187.926718 102.316807,188.155246 102.517132,188.344947 L171.115731,253.334575 L179.410232,261.192171 C181.101396,262.795196 183.672934,260.82941 182.747222,258.640643 L178.203012,247.903149 L140.650543,159.157689 C140.541946,158.899208 140.384849,158.664024 140.191905,158.466558 L50.5349505,67.142946 C48.8364069,65.413454 46.1351848,67.4801914 47.1737109,69.7122234" id="Fill-14"></path>
                            <path d="M2.022197,206.84681 L85.7364885,256.722023 C85.9867711,256.870448 86.2612408,256.96419 86.5462265,256.995438 L165.538799,265.806071 L176.613281,267.041456 C178.872134,267.293667 179.852233,264.094163 177.884675,262.888908 L168.242483,256.98093 L99.4484027,214.83162 C99.1991717,214.679848 98.924702,214.582758 98.6407679,214.547046 L3.29674567,202.684218 C1.01370511,202.399644 0.0178325124,205.652715 2.022197,206.84681" id="Fill-16"></path>
                            <path d="M42.2042524,319.826917 L109.415689,314.778314 C109.734801,314.75386 110.043381,314.653821 110.320366,314.485979 L168.22596,279.201336 L177.883562,273.315745 C179.852997,272.116397 178.872493,268.928507 176.610276,269.180826 L165.520357,270.410187 L99.0292907,277.786349 C98.7112322,277.820807 98.4058119,277.93196 98.1351462,278.109806 L40.9404441,315.722009 C39.0752735,316.949146 40.0125981,319.991424 42.2042524,319.826917" id="Fill-18"></path>
                            <path d="M114.352883,376.324853 L154.816365,341.409265 C155.072014,341.18814 155.27549,340.905899 155.409054,340.585879 L177.253991,288.338062 L181.749238,277.587368 C182.6654,275.393893 180.12039,273.424877 178.446672,275.031647 L170.235646,282.903266 L130.333548,321.162403 C130.089377,321.397974 129.899467,321.690215 129.781555,322.016902 L111.091012,373.801356 C110.325109,375.923715 112.69273,377.757167 114.352883,376.324853" id="Fill-20"></path>
                        </g>
                        <path d="M3.08638743,639.666667 L541.086387,639.666667 L541.086387,388.431264 C541.086387,231.129277 420.61871,103.666667 272.086387,103.666667 C123.554065,103.666667 3.08638743,231.129277 3.08638743,388.431264 L3.08638743,639.666667 Z" id="arch" stroke="#04D9AC" stroke-width="5"></path>
                        <text id="HOLY" font-family="Helvetica" font-size="56" font-weight="normal" letter-spacing="1.16666667" fill="#04D9AC">
                            <tspan x="0.586387435" y="54.1666667">HOLY</tspan>
                        </text>
                        <text id="HEMP" font-family="Helvetica" font-size="56" font-weight="normal" letter-spacing="1.16666667" fill="#04D9AC">
                            <tspan x="360.401492" y="54.1666667"> HEMP</tspan>
                        </text>
                    </g>
                </g>
            </g>
        </g>
    </g>
</svg>
