<?xml version="1.0" encoding="UTF-8"?>
<svg width="535px" height="646px" viewBox="0 0 535 646" version="1.1" xmlns="http://www.w3.org/2000/svg" xmlns:xlink="http://www.w3.org/1999/xlink">
    <!-- Generator: Sketch 52 (66869) - http://www.bohemiancoding.com/sketch -->
    <title>holy_hemp</title>
    <desc>Created with Sketch.</desc>
    <g id="Home-page" stroke="none" stroke-width="1" fill="none" fill-rule="evenodd">
        <g id="Home-Page" transform="translate(-74.000000, -4733.000000)">
            <g id="HOLY-HEMP" transform="translate(-1.000000, 4679.000000)">
                <g id="left_panel" transform="translate(1.413613, 0.000000)">
                    <g id="holy_hemp" transform="translate(74.000000, 54.000000)">
                        <path d="M2.41361257,643.861827 L532.54467,643.861827 L532.54467,268.473413 C532.54467,121.779013 413.870133,2.86182732 267.479141,2.86182732 C121.08815,2.86182732 2.41361257,121.779013 2.41361257,268.473413 L2.41361257,643.861827 Z" id="Fill-1" stroke="#04D9AC" stroke-width="4"></path>
                        <text id="HOLY-HEMP" font-family="Helvetica" font-size="72" font-weight="200" line-spacing="72" fill="#04D9AC">
                            <tspan x="55.5" y="627">HOLY HEMP</tspan>
                        </text>
                        <polyline id="Stroke-1" stroke="#04D9AC" stroke-width="4" stroke-linecap="round" points="267.086387 465 267.086387 373.020321 267.086387 336"></polyline>
                        <g id="leaves" transform="translate(80.643721, 72.000000)" fill="#04D9AC">
                            <path d="M211.897112,131.172761 L187.985577,244.335487 C187.515721,246.554838 184.368724,246.554838 183.900956,244.335487 L159.988377,131.172761 C159.93095,130.900726 159.927818,130.621337 159.977936,130.349301 L183.886338,1.71414116 C184.311297,-0.571380385 187.566883,-0.571380385 187.990798,1.71414116 L211.906509,130.349301 C211.957671,130.622388 211.954539,130.901776 211.897112,131.172761" id="Fill-3"></path>
                            <path d="M325.712034,66.043159 L270.85147,177.794115 C270.73233,178.035838 270.568907,178.252339 270.368582,178.432055 L201.768891,240.001176 L193.475439,247.445215 C191.784275,248.96387 189.211681,247.101547 190.138448,245.027978 L194.68266,234.855615 L232.234096,150.780969 C232.343747,150.536092 232.49979,150.313286 232.693789,150.126213 L322.350793,63.6091067 C324.048283,61.9706406 326.749506,63.9286023 325.712034,66.043159" id="Fill-5"></path>
                            <path d="M370.667028,195.96805 L286.846593,242.971705 C286.595993,243.111584 286.320123,243.199929 286.034775,243.229378 L206.942046,251.53274 L195.854575,252.696998 C193.592858,252.934688 192.611517,249.919395 194.58157,248.783533 L204.235987,243.215705 L273.117293,203.493136 C273.365787,203.350102 273.640605,203.258602 273.924899,203.224947 L369.390864,192.045119 C371.676799,191.776929 372.673934,194.842705 370.667028,195.96805" id="Fill-7"></path>
                            <path d="M330.681795,302.993921 L263.468954,298.211034 C263.150894,298.187867 262.841259,298.093094 262.565326,297.934086 L204.659429,264.506529 L195.001776,258.930706 C193.032331,257.794481 194.012841,254.774375 196.27507,255.013414 L207.363993,256.178072 L273.85646,263.166015 C274.17452,263.198659 274.479942,263.303962 274.750609,263.472448 L331.944557,299.105061 C333.809737,300.267612 332.873461,303.14977 330.681795,302.993921" id="Fill-10"></path>
                            <path d="M257.532512,356.518281 L217.069192,323.440357 C216.813544,323.230869 216.610069,322.963484 216.475463,322.660306 L194.631656,273.162374 L190.136427,262.977506 C189.219225,260.899477 191.765269,259.034094 193.43898,260.556297 L201.648929,268.013621 L241.551911,304.259118 C241.796081,304.482291 241.984947,304.759151 242.102858,305.068644 L260.79437,354.127601 C261.56027,356.138257 259.191615,357.875211 257.532512,356.518281" id="Fill-12"></path>
                            <path d="M47.1737109,66.043159 L102.03319,177.794115 C102.153385,178.035838 102.316807,178.252339 102.517132,178.432055 L171.115731,240.001176 L179.410232,247.445215 C181.101396,248.96387 183.672934,247.101547 182.747222,245.027978 L178.203012,234.855615 L140.650543,150.780969 C140.541946,150.536092 140.384849,150.313286 140.191905,150.126213 L50.5349505,63.6091067 C48.8364069,61.9706406 46.1351848,63.9286023 47.1737109,66.043159" id="Fill-14"></path>
                            <path d="M2.022197,195.960136 L85.7364885,243.210338 C85.9867711,243.350951 86.2612408,243.439759 86.5462265,243.469362 L165.538799,251.816277 L176.613281,252.986643 C178.872134,253.225579 179.852233,250.19447 177.884675,249.05265 L168.242483,243.455618 L99.4484027,203.524693 C99.1991717,203.380908 98.924702,203.288928 98.6407679,203.255097 L3.29674567,192.016628 C1.01370511,191.747031 0.0178325124,194.828888 2.022197,195.960136" id="Fill-16"></path>
                            <path d="M42.2042524,302.993921 L109.415689,298.211034 C109.734801,298.187867 110.043381,298.093094 110.320366,297.934086 L168.22596,264.506529 L177.883562,258.930706 C179.852997,257.794481 178.872493,254.774375 176.610276,255.013414 L165.520357,256.178072 L99.0292907,263.166015 C98.7112322,263.198659 98.4058119,263.303962 98.1351462,263.472448 L40.9404441,299.105061 C39.0752735,300.267612 40.0125981,303.14977 42.2042524,302.993921" id="Fill-18"></path>
                            <path d="M114.352883,356.518281 L154.816365,323.440357 C155.072014,323.230869 155.27549,322.963484 155.409054,322.660306 L177.253991,273.162374 L181.749238,262.977506 C182.6654,260.899477 180.12039,259.034094 178.446672,260.556297 L170.235646,268.013621 L130.333548,304.259118 C130.089377,304.482291 129.899467,304.759151 129.781555,305.068644 L111.091012,354.127601 C110.325109,356.138257 112.69273,357.875211 114.352883,356.518281" id="Fill-20"></path>
                        </g>
                    </g>
                </g>
            </g>
        </g>
    </g>
</svg>
