
<svg width="240px" height="264px" viewBox="0 0 240 264" version="1.1" xmlns="http://www.w3.org/2000/svg" xmlns:xlink="http://www.w3.org/1999/xlink">
    <g id="Mobile" stroke="none" stroke-width="1" fill="none" fill-rule="evenodd">
        <g id="Mobile-Home_04C_320px" transform="translate(-40.000000, -111.000000)">
            <g id="left_panel" transform="translate(0.000000, 85.000000)">
                <g id="human_rites" transform="translate(38.216374, 22.116959)">
                    <path d="M13.8089422,264.941058 L229.758309,264.941058 L229.758309,164.213698 C229.758309,101.059933 181.390377,49.9083574 121.783626,49.9083574 C62.1768744,49.9083574 13.8089422,101.059933 13.8089422,164.213698 L13.8089422,264.941058 Z" id="arch" stroke="#FF3752" stroke-width="4.05063291"></path>
                    <text id="HUMAN" font-family="Helvetica" font-size="27" font-weight="normal" line-spacing="33.6842105" fill="#FF3737">
                        <tspan x="0" y="26">HUMAN</tspan>
                    </text>
                    <text id="RITES" font-family="Helvetica" font-size="27" font-weight="normal" line-spacing="33.6842105" fill="#FF3737">
                        <tspan x="163.489746" y="26">RITES</tspan>
                    </text>
                    <g id="justice" transform="translate(25.683690, 43.883041)">
                        <polyline id="Stroke-1" stroke="#FF3737" stroke-width="2" points="1.87134503 184.795322 34.619883 113.684211 67.3684211 184.795322"></polyline>
                        <path d="M40.1875088,98.9988304 L151.78938,98.9988304" id="Stroke-3" stroke="#FF3737" stroke-width="1.87134503"></path>
                        <path d="M95.9886316,0.467649123 L95.9886316,66.733848 L95.9886316,0.467649123 Z" id="Fill-4" fill="#FFC5C5"></path>
                        <g id="Group-28" transform="translate(0.000000, 5.430877)">
                            <path d="M95.9884444,61.3027836 L95.9884444,0.604279057" id="Stroke-5" stroke="#FF3737" stroke-width="2"></path>
                            <path d="M77.6608187,87.2007018 C77.6608187,76.8660626 85.9344278,68.4872515 96.1403509,68.4872515 C106.346274,68.4872515 114.619883,76.8660626 114.619883,87.2007018" id="Fill-8" fill="#FF3737"></path>
                            <path d="M34.619883,187.785497 L0,187.785497 C0,187.785497 7.0232921,202.756257 34.619883,202.756257 C62.216474,202.756257 69.2397661,187.785497 69.2397661,187.785497 L34.619883,187.785497 Z" id="Fill-10" fill="#FF3737"></path>
                            <path d="M157.192982,187.785497 L122.573099,187.785497 C122.573099,187.785497 129.596392,202.756257 157.192982,202.756257 C184.789573,202.756257 191.812865,187.785497 191.812865,187.785497 L157.192982,187.785497 Z" id="Fill-12" fill="#FF3737"></path>
                            <path d="M34.3859649,108.672437 L30.537037,100.341341 C29.1832359,97.2002579 28.5380117,94.9966823 28.5380117,93.498405 C28.5380117,90.3057737 31.1564327,87.717271 34.3859649,87.717271 C37.6154971,87.717271 40.2339181,90.3057737 40.2339181,93.498405 C40.2339181,94.9966823 39.588694,97.2002579 38.2348928,100.341341 L34.3859649,108.672437" id="Stroke-16" stroke="#FF3737" stroke-width="2"></path>
                            <path d="M37.8947368,93.5164912 C37.8947368,95.4547368 36.3242105,97.0252632 34.3859649,97.0252632 C32.4477193,97.0252632 30.877193,95.4547368 30.877193,93.5164912 C30.877193,91.5787135 32.4477193,90.0077193 34.3859649,90.0077193 C36.3242105,90.0077193 37.8947368,91.5787135 37.8947368,93.5164912" id="Fill-18" fill="#FF3752"></path>
                            <polyline id="Stroke-20" stroke="#FF3737" stroke-width="2" points="189.94152 179.364444 157.192982 108.253333 124.444444 179.364444"></polyline>
                            <path d="M157.426901,108.672437 L161.275828,100.341341 C162.62963,97.2002579 163.274854,94.9966823 163.274854,93.498405 C163.274854,90.3057737 160.656433,87.717271 157.426901,87.717271 C154.197368,87.717271 151.578947,90.3057737 151.578947,93.498405 C151.578947,94.9966823 152.224172,97.2002579 153.577973,100.341341 L157.426901,108.672437" id="Stroke-24" stroke="#FF3737" stroke-width="2"></path>
                            <path d="M153.918129,93.5164912 C153.918129,95.4547368 155.488655,97.0252632 157.426901,97.0252632 C159.365146,97.0252632 160.935673,95.4547368 160.935673,93.5164912 C160.935673,91.5787135 159.365146,90.0077193 157.426901,90.0077193 C155.488655,90.0077193 153.918129,91.5787135 153.918129,93.5164912" id="Fill-26" fill="#FF3752"></path>
                        </g>
                    </g>
                </g>
            </g>
        </g>
    </g>
</svg>
