
<svg width="549px" height="649px" viewBox="0 0 549 649" version="1.1" xmlns="http://www.w3.org/2000/svg" xmlns:xlink="http://www.w3.org/1999/xlink">
    <g id="Home-page" stroke="none" stroke-width="1" fill="none" fill-rule="evenodd">
        <g id="HUMAN-RITES-Copy" transform="translate(-68.000000, -52.000000)">
            <g id="left_panel" transform="translate(1.413613, 0.000000)">
                <g id="human_rites" transform="translate(69.000000, 43.000000)">
                    <path d="M0.586387435,401.264597 C0.586387435,242.612464 122.140816,114 272.086387,114 C422.031959,114 543.586387,242.612464 543.586387,401.264597 L543.586387,655 L0.586387435,655 L0.586387435,401.264597 Z" id="arch" stroke="#D49393" stroke-width="5"></path>
                    <text id="HUMAN" font-family="Helvetica" font-size="56" font-weight="normal" line-spacing="72" fill="#D49393">
                        <tspan x="0.586387435" y="54">HUMAN</tspan>
                    </text>
                    <text id="RITES" font-family="Helvetica" font-size="56" font-weight="normal" line-spacing="72" fill="#D49393">
                        <tspan x="378.676231" y="54">RITES</tspan>
                    </text>
                </g>
            </g>
            <g id="justice" transform="translate(136.000000, 167.000000)">
                <polyline id="Stroke-1" stroke="#D49393" stroke-width="4" points="3.9008 395.4333 73.9008 243.1073 143.9008 395.4333"></polyline>
                <path d="M85.9008,211.61 L324.4498,211.61" id="Stroke-3" stroke="#D49393" stroke-width="4"></path>
                <path d="M205.1757,0.9996 L205.1757,142.6436 L205.1757,0.9996 Z" id="Fill-4" fill="#FFFFFF"></path>
                <g id="Group-28" transform="translate(0.000000, 0.921000)">
                    <path d="M205.1753,141.7222 L205.1753,0.0782" id="Stroke-5" stroke="#D49393" stroke-width="4"></path>
                    <path d="M165.5923,196.689 C165.5923,174.829 183.3143,157.106 205.1753,157.106 C227.0363,157.106 244.7583,174.829 244.7583,196.689" id="Fill-8" fill="#D49393"></path>
                    <path d="M73.9008,412.2798 L0.0008,412.2798 C0.0008,412.2798 14.9928,443.9998 73.9008,443.9998 C132.8088,443.9998 147.8008,412.2798 147.8008,412.2798 L73.9008,412.2798 Z" id="Fill-10" fill="#D49393"></path>
                    <path d="M336.1997,412.2798 L262.2997,412.2798 C262.2997,412.2798 277.2917,443.9998 336.1997,443.9998 C395.1077,443.9998 410.0997,412.2798 410.0997,412.2798 L336.1997,412.2798 Z" id="Fill-12" fill="#D49393"></path>
                    <path d="M73.9008,242.1861 L66.0028,224.8931 C63.2248,218.3731 61.9008,213.7991 61.9008,210.6891 C61.9008,204.0621 67.2738,198.6891 73.9008,198.6891 C80.5278,198.6891 85.9008,204.0621 85.9008,210.6891 C85.9008,213.7991 84.5768,218.3731 81.7988,224.8931 L73.9008,242.1861" id="Stroke-16" stroke="#D49393" stroke-width="4"></path>
                    <path d="M81.4008,210.689 C81.4008,214.832 78.0438,218.189 73.9008,218.189 C69.7578,218.189 66.4008,214.832 66.4008,210.689 C66.4008,206.547 69.7578,203.189 73.9008,203.189 C78.0438,203.189 81.4008,206.547 81.4008,210.689" id="Fill-18" fill="#D49393"></path>
                    <polyline id="Stroke-20" stroke="#D49393" stroke-width="4" points="406.4497 394.5123 336.4497 242.1863 266.4497 394.5123"></polyline>
                    <path d="M336.4497,242.1861 L344.3477,224.8931 C347.1257,218.3731 348.4497,213.7991 348.4497,210.6891 C348.4497,204.0621 343.0767,198.6891 336.4497,198.6891 C329.8227,198.6891 324.4497,204.0621 324.4497,210.6891 C324.4497,213.7991 325.7737,218.3731 328.5517,224.8931 L336.4497,242.1861" id="Stroke-24" stroke="#D49393" stroke-width="4"></path>
                    <path d="M328.9497,210.689 C328.9497,214.832 332.3067,218.189 336.4497,218.189 C340.5927,218.189 343.9497,214.832 343.9497,210.689 C343.9497,206.547 340.5927,203.189 336.4497,203.189 C332.3067,203.189 328.9497,206.547 328.9497,210.689" id="Fill-26" fill="#D49393"></path>
                </g>
            </g>
        </g>
    </g>
</svg>
