
<svg width="549px" height="649px" viewBox="0 0 549 649" version="1.1" xmlns="http://www.w3.org/2000/svg" xmlns:xlink="http://www.w3.org/1999/xlink">
    <g id="Home-page" stroke="none" stroke-width="1" fill="none" fill-rule="evenodd">
        <g id="Home-Page_1366px_2" transform="translate(-68.000000, -4403.000000)">
            <g id="HUMAN-RITES" transform="translate(-1.000000, 4351.000000)">
                <g id="left_panel">
                    <g id="Group" transform="translate(71.000000, 43.000000)">
                        <g id="human_rites">
                            <path d="M0.586387435,401.264597 C0.586387435,242.612464 122.140816,114 272.086387,114 C422.031959,114 543.586387,242.612464 543.586387,401.264597 L543.586387,655 L0.586387435,655 L0.586387435,401.264597 Z" id="arch" stroke="#FF3752" stroke-width="5"></path>
                            <text id="HUMAN" font-family="Helvetica" font-size="56" font-weight="normal" line-spacing="72" fill="#FF3737">
                                <tspan x="0.586387435" y="54">HUMAN</tspan>
                            </text>
                            <text id="RITES" font-family="Helvetica" font-size="56" font-weight="normal" line-spacing="72" fill="#FF3737">
                                <tspan x="378.676231" y="54">RITES</tspan>
                            </text>
                        </g>
                        <g id="justice" transform="translate(65.586387, 124.000000)">
                            <polyline id="Stroke-1" stroke="#FF3737" stroke-width="4" points="4 395 74 243 144 395"></polyline>
                            <path d="M85.9008,211.61 L324.4498,211.61" id="Stroke-3" stroke="#FF3737" stroke-width="4"></path>
                            <path d="M205.1757,0.9996 L205.1757,142.6436 L205.1757,0.9996 Z" id="Fill-4" fill="#FFC5C5"></path>
                            <g id="Group-28" transform="translate(0.000000, 0.921000)">
                                <path d="M205.1753,141.7222 L205.1753,0.0782" id="Stroke-5" stroke="#FF3737" stroke-width="4"></path>
                                <path d="M166,197.079 C166,174.988709 183.684839,157.079 205.5,157.079 C227.315161,157.079 245,174.988709 245,197.079" id="Fill-8" fill="#FF3737"></path>
                                <path d="M74,412.079 L1.98952291e-13,412.079 C1.98952291e-13,412.079 15.0122869,444.079 74,444.079 C132.987713,444.079 148,412.079 148,412.079 L74,412.079 Z" id="Fill-10" fill="#FF3737"></path>
                                <path d="M336,412.079 L262,412.079 C262,412.079 277.012287,444.079 336,444.079 C394.987713,444.079 410,412.079 410,412.079 L336,412.079 Z" id="Fill-12" fill="#FF3737"></path>
                                <path d="M73.5,242.974833 L65.2729167,225.167116 C62.3791667,218.453051 61,213.742908 61,210.540341 C61,203.716091 66.596875,198.183167 73.5,198.183167 C80.403125,198.183167 86,203.716091 86,210.540341 C86,213.742908 84.6208333,218.453051 81.7270833,225.167116 L73.5,242.974833" id="Stroke-16" stroke="#FF3737" stroke-width="4"></path>
                                <path d="M81,210.579 C81,214.722 77.643,218.079 73.5,218.079 C69.357,218.079 66,214.722 66,210.579 C66,206.437 69.357,203.079 73.5,203.079 C77.643,203.079 81,206.437 81,210.579" id="Fill-18" fill="#FF3752"></path>
                                <polyline id="Stroke-20" stroke="#FF3737" stroke-width="4" points="406 394.079 336 242.079 266 394.079"></polyline>
                                <path d="M336.5,242.974833 L344.727083,225.167116 C347.620833,218.453051 349,213.742908 349,210.540341 C349,203.716091 343.403125,198.183167 336.5,198.183167 C329.596875,198.183167 324,203.716091 324,210.540341 C324,213.742908 325.379167,218.453051 328.272917,225.167116 L336.5,242.974833" id="Stroke-24" stroke="#FF3737" stroke-width="4"></path>
                                <path d="M329,210.579 C329,214.722 332.357,218.079 336.5,218.079 C340.643,218.079 344,214.722 344,210.579 C344,206.437 340.643,203.079 336.5,203.079 C332.357,203.079 329,206.437 329,210.579" id="Fill-26" fill="#FF3752"></path>
                            </g>
                        </g>
                    </g>
                </g>
            </g>
        </g>
    </g>
</svg>
