<?xml version="1.0" encoding="UTF-8"?>
<svg width="48px" height="48px" viewBox="0 0 48 48" version="1.1" xmlns="http://www.w3.org/2000/svg" xmlns:xlink="http://www.w3.org/1999/xlink">
    <!-- Generator: Sketch 55.1 (78136) - https://sketchapp.com -->
    <title>made_in_usa_48px</title>
    <desc>Created with Sketch.</desc>
    <g id="made_in_usa_48px" stroke="none" stroke-width="1" fill="none" fill-rule="evenodd">
        <g id="Group-9" transform="translate(0.000000, 3.000000)" fill="#000000">
            <polygon id="Fill-1" points="36 2.001 48 2.001 48 2.84217094e-14 36 2.84217094e-14"></polygon>
            <polygon id="Fill-2" points="-4.51097493e-14 20.0089597 -4.51097493e-14 22 48 21.9910403 48 20"></polygon>
            <polygon id="Fill-3" points="0 32 48 32 48 30 0 30"></polygon>
            <polygon id="Fill-4" points="0 42 48 42 48 40 0 40"></polygon>
            <polygon id="Fill-5" points="36 12 48 12 48 10 36 10"></polygon>
            <polygon id="Fill-6" points="6 0 6 9.99916674 2 10 1.999 0 0 0 0 12 8 12 8 0"></polygon>
            <path d="M20,0 L20,12 L22.001,12 L22.001,6.00798935 L26,6.00798935 L26,12 L28,12 L28,0 L20,0 Z M22,4 L26,4 L26,2 L22,2 L22,4 Z" id="Fill-7"></path>
            <polygon id="Fill-8" points="11 0 11 6.00798935 15.001 6.00798935 15.001 10.0016644 11 10.0016644 11 12 17 12 17 4.01065246 13.001 4.01065246 13.001 1.99733688 17 1.99733688 17 0"></polygon>
        </g>
    </g>
</svg>