<?xml version="1.0" encoding="UTF-8"?>
<svg width="48px" height="48px" viewBox="0 0 48 48" version="1.1" xmlns="http://www.w3.org/2000/svg" xmlns:xlink="http://www.w3.org/1999/xlink">
    <!-- Generator: Sketch 55.1 (78136) - https://sketchapp.com -->
    <title>no_gmo_48px</title>
    <desc>Created with Sketch.</desc>
    <g id="no_gmo_48px" stroke="none" stroke-width="1" fill="none" fill-rule="evenodd">
        <g id="Group-5" fill="#000000">
            <path d="M24,48 C10.767,48 0,37.233 0,24 C0,10.767 10.767,0 24,0 L24,2 C11.869,2 2,11.869 2,24 C2,36.131 11.869,46 24,46 C36.131,46 46,36.131 46,24 C46,18.459 43.965,13.229 40.248,9.167 L13.755,35.66 L12.341,34.246 L40.264,6.323 L40.971,7.03 C45.503,11.563 48,17.59 48,24 C48,37.233 37.233,48 24,48" id="Fill-1"></path>
            <path d="M32.2490157,4 C29.632874,2.79770052 26.8572835,2.18998084 24,2.18998084 L24,-4.26325641e-14 C27.1161417,-4.26325641e-14 30.1437008,0.664659184 33,1.97426773 L32.2490157,4 Z" id="Fill-3"></path>
        </g>
    </g>
</svg>