<?xml version="1.0" encoding="UTF-8"?>
<svg width="48px" height="48px" viewBox="0 0 48 48" version="1.1" xmlns="http://www.w3.org/2000/svg" xmlns:xlink="http://www.w3.org/1999/xlink">
    <!-- Generator: Sketch 55.1 (78136) - https://sketchapp.com -->
    <title>organically_grown_48px</title>
    <desc>Created with Sketch.</desc>
    <defs>
        <polygon id="path-1" points="-3.05533376e-13 1 18 1 18 9 -3.05533376e-13 9"></polygon>
        <polygon id="path-3" points="-3.05533376e-13 1 18 1 18 9 -3.05533376e-13 9"></polygon>
    </defs>
    <g id="organically_grown_48px" stroke="none" stroke-width="1" fill="none" fill-rule="evenodd">
        <g id="Group-19" transform="translate(2.000000, 0.000000)">
            <path d="M20,18 C23.615033,17.5111336 27.1102082,14.534413 28,11.062753 C27.7044185,11.0253036 27.4068055,11 27.1010665,11 C23.2097511,11 20.0426612,14.1336032 20,18" id="Fill-1" fill="#000000"></path>
            <path d="M10.899835,11 C10.5941348,11 10.295544,11.0253036 10,11.062753 C10.8896788,14.534413 14.3854259,17.5111336 18,18 C17.9563286,14.1336032 14.7906563,11 10.899835,11" id="Fill-3" fill="#000000"></path>
            <path d="M10.9643395,8.2696487 C14.4620794,8.2696487 17.4957308,10.1950729 19.0005023,13 C20.5052737,10.1950729 23.5389252,8.2696487 27.036665,8.2696487 C27.3621296,8.2696487 27.6835761,8.2889997 28,8.32092885 C27.7940733,6.10233701 25.8774485,4.3539744 23.5208438,4.3539744 C23.5208438,1.95251563 21.4937217,4.26325641e-14 19.0005023,4.26325641e-14 C16.4992466,4.26325641e-14 14.4801607,1.95251563 14.4801607,4.3539744 C12.1165244,4.3539744 10.2069312,6.10233701 10,8.32092885 C10.3174284,8.2889997 10.6388749,8.2696487 10.9643395,8.2696487" id="Fill-5" fill="#000000"></path>
            <path d="M8.98267467,24 C4.16827086,24 1.6825954,26.3284179 1.41558147,26.5943514 L-3.0375702e-13,28 L1.41558147,29.4046488 C1.6825954,29.6705824 4.16827086,32 8.98267467,32 C13.7369494,32 16.2613521,29.6855786 16.5334617,29.4216446 L18,28 L16.5334617,26.5773557 C16.2613521,26.3134216 13.7369494,24 8.98267467,24 M9,26 C12.9776741,26 15,28 15,28 C15,28 12.9776741,30 9,30 C4.97634122,30 3,28 3,28 C3,28 4.97634122,26 9,26" id="Fill-7" fill="#000000"></path>
            <path d="M8.98267467,38 C4.16827086,38 1.6825954,40.3284179 1.41558147,40.5943514 L-3.0375702e-13,42 L1.41558147,43.4056486 C1.6825954,43.6715821 4.16827086,46 8.98267467,46 C13.7369494,46 16.2613521,43.6855786 16.5334617,43.4226443 L18,42 L16.5334617,40.5773557 C16.2613521,40.3134216 13.7369494,38 8.98267467,38 M9,40 C12.9776741,40 15,42 15,42 C15,42 12.9776741,44 9,44 C4.97634122,44 3,42 3,42 C3,42 4.97634122,40 9,40" id="Fill-9" fill="#000000"></path>
            <g id="Group-13" transform="translate(26.000000, 31.000000)">
                <mask id="mask-2" fill="white">
                    <use xlink:href="#path-1"></use>
                </mask>
                <g id="Clip-12"></g>
                <path d="M8.98267467,1 C4.16827086,1 1.6825954,3.32870891 1.41558147,3.59367579 L-3.05533376e-13,4.99950006 L1.41558147,6.40532433 C1.6825954,6.67129109 4.16827086,9 8.98267467,9 C13.7369494,9 16.2613521,6.68628921 16.5334617,6.42232221 L18,4.99950006 L16.5334617,3.57767779 C16.2613521,3.31371079 13.7369494,1 8.98267467,1 M9,3 C12.9776741,3 15,4.99950012 15,4.99950012 C15,4.99950012 12.9776741,7 9,7 C4.97634122,7 3,4.99950012 3,4.99950012 C3,4.99950012 4.97634122,3 9,3" id="Fill-11" fill="#000000" mask="url(#mask-2)"></path>
            </g>
            <g id="Group-16" transform="translate(26.000000, 17.000000)">
                <mask id="mask-4" fill="white">
                    <use xlink:href="#path-3"></use>
                </mask>
                <g id="Clip-15"></g>
                <path d="M8.98267467,1 C4.16827086,1 1.6825954,3.3284179 1.41558147,3.59435141 L-3.05533376e-13,5 L1.41558147,6.40464884 C1.6825954,6.67058235 4.16827086,9 8.98267467,9 C13.7369494,9 16.2613521,6.68557861 16.5334617,6.42164459 L18,5 L16.5334617,3.57735566 C16.2613521,3.31342164 13.7369494,1 8.98267467,1 M9,3 C12.9776741,3 15,5 15,5 C15,5 12.9776741,7 9,7 C4.97634122,7 3,5 3,5 C3,5 4.97634122,3 9,3" id="Fill-14" fill="#000000" mask="url(#mask-4)"></path>
            </g>
            <path d="M26,48 L24,48 L24,43.998 C24,42.157 22.798,41.116 21.526,40.014 C20.284,38.937 19,37.825 19,35.994 C19,34.085 20.417,32.667 21.788,31.296 C22.926,30.158 24,29.083 24,27.991 C24,27.006 22.721,25.975 21.484,24.977 C19.851,23.659 18,22.166 18,19.987 L18,18 L20,18 L20,19.987 C20,21.209 21.393,22.333 22.74,23.42 C24.343,24.713 26,26.05 26,27.991 C26,29.911 24.578,31.334 23.203,32.71 C22.07,33.843 21,34.913 21,35.994 C21,36.867 21.697,37.517 22.835,38.502 C24.245,39.724 26,41.244 26,43.998 L26,48 Z" id="Fill-17" fill="#000000"></path>
        </g>
    </g>
</svg>