
<svg width="74px" height="74px" viewBox="0 0 74 74" version="1.1" xmlns="http://www.w3.org/2000/svg" xmlns:xlink="http://www.w3.org/1999/xlink">
    <g id="Symbols" stroke="none" stroke-width="1" fill="none" fill-rule="evenodd">
        <g id="broad_spectrum" transform="translate(2.000000, 2.000000)" stroke="#000000" stroke-width="4">
            <g id="Group-9">
                <path d="M55.6302,48.2606 C55.6302,59.8586 46.2282,69.2606 34.6302,69.2606 C23.0322,69.2606 13.6302,59.8586 13.6302,48.2606 C13.6302,36.6626 23.0322,27.2606 34.6302,27.2606 C46.2282,27.2606 55.6302,36.6626 55.6302,48.2606 Z" id="Stroke-1"></path>
                <path d="M55.6302,20.9998 C55.6302,32.5978 46.2282,41.9998 34.6302,41.9998 C23.0322,41.9998 13.6302,32.5978 13.6302,20.9998 C13.6302,9.4018 23.0322,-0.0002 34.6302,-0.0002 C46.2282,-0.0002 55.6302,9.4018 55.6302,20.9998 Z" id="Stroke-3"></path>
                <path d="M20.9999,55.6307 C9.4019,55.6307 -0.0001,46.2287 -0.0001,34.6307 C-0.0001,23.0317 9.4019,13.6307 20.9999,13.6307 C32.5979,13.6307 41.9999,23.0317 41.9999,34.6307 C41.9999,46.2287 32.5979,55.6307 20.9999,55.6307 Z" id="Stroke-5"></path>
                <path d="M48.2606,55.6307 C36.6626,55.6307 27.2606,46.2287 27.2606,34.6307 C27.2606,23.0317 36.6626,13.6307 48.2606,13.6307 C59.8586,13.6307 69.2606,23.0317 69.2606,34.6307 C69.2606,46.2287 59.8586,55.6307 48.2606,55.6307 Z" id="Stroke-7"></path>
            </g>
        </g>
    </g>
</svg>
