<?xml version="1.0" encoding="UTF-8"?>
<svg width="48px" height="48px" viewBox="0 0 48 48" version="1.1" xmlns="http://www.w3.org/2000/svg" xmlns:xlink="http://www.w3.org/1999/xlink">
    <!-- Generator: Sketch 55.1 (78136) - https://sketchapp.com -->
    <title>zero_thc_48px</title>
    <desc>Created with Sketch.</desc>
    <defs>
        <polygon id="path-1" points="0 -8.52651283e-14 48 -8.52651283e-14 48 48 0 48"></polygon>
    </defs>
    <g id="zero_thc_48px" stroke="none" stroke-width="1" fill="none" fill-rule="evenodd">
        <g id="Group-10" transform="translate(0.000000, -1.000000)">
            <g id="Group-3" transform="translate(0.000000, 1.000000)">
                <mask id="mask-2" fill="white">
                    <use xlink:href="#path-1"></use>
                </mask>
                <g id="Clip-2"></g>
                <path d="M39.557,39.5652428 C31.219,47.9049802 17.8,48.139029 9.178,40.2663888 L15.431,34.0070848 L12.604,34.0070848 L7.763,38.8530944 C4.039,34.7892478 2,29.5541571 2,24.005001 C2,18.1277766 4.288,12.6026255 8.444,8.44675974 C12.599,4.28989373 18.124,2.00041675 24,2.00041675 C29.707,2.00041675 34.913,4.18487185 38.827,7.76261721 L32.591,14.0029173 L35.418,14.0029173 L40.241,9.17691186 C43.817,13.0907272 46,18.297812 46,24.005001 C46,29.8832257 43.712,35.409377 39.557,39.5652428 M40.971,7.0324651 L40.264,6.32531777 L40.242,6.34632215 C35.965,2.40850177 30.259,-7.10542736e-15 24,-7.10542736e-15 C17.59,-7.10542736e-15 11.563,2.49752032 7.03,7.0324651 C2.496,11.5654095 -9.9475983e-14,17.5936653 -9.9475983e-14,24.005001 C-9.9475983e-14,30.4173369 2.496,36.446593 7.03,40.9795374 C11.709,45.6605126 17.854,48 24,48 C30.145,47.9989998 36.293,45.6595124 40.971,40.9795374 C45.504,36.446593 48,30.4173369 48,24.005001 C48,17.5936653 45.504,11.5654095 40.971,7.0324651" id="Fill-1" fill="#000000" mask="url(#mask-2)"></path>
            </g>
            <polygon id="Fill-4" fill="#000000" points="38 20.9933289 38 19 32 19 32 31 38 31 38 29.0066711 33.9933289 29.0066711 33.9933289 20.9933289"></polygon>
            <polygon id="Fill-6" fill="#000000" points="26.006006 19 26.006006 23.0199601 21.993994 23.0199601 21.993994 19 20 19 20 31 21.993994 31 21.993994 25.008982 26.006006 25.008982 26.006006 31 28 31 28 19"></polygon>
            <polygon id="Fill-8" fill="#000000" points="10 20.9881893 12.004 20.9881893 12.004 31 13.996 31 13.996 20.9881893 16 20.9881893 16 19 10 19"></polygon>
        </g>
    </g>
</svg>