<?xml version="1.0" encoding="UTF-8"?>
<svg width="48px" height="48px" viewBox="0 0 48 48" version="1.1" xmlns="http://www.w3.org/2000/svg" xmlns:xlink="http://www.w3.org/1999/xlink">
    <!-- Generator: Sketch 55.1 (78136) - https://sketchapp.com -->
    <title>broad_spectrum_48px</title>
    <desc>Created with Sketch.</desc>
    <g id="broad_spectrum_48px" stroke="none" stroke-width="1" fill="none" fill-rule="evenodd">
        <g id="Group-9" transform="translate(0.977778, 1.000000)" stroke="#000000" stroke-width="2">
            <path d="M37,31.5 C37,39.5081429 30.5081429,46 22.5,46 C14.4918571,46 8,39.5081429 8,31.5 C8,23.4918571 14.4918571,17 22.5,17 C30.5081429,17 37,23.4918571 37,31.5 Z" id="Stroke-1"></path>
            <path d="M37,14.5 C37,22.5081429 30.5081429,29 22.5,29 C14.4918571,29 8,22.5081429 8,14.5 C8,6.49185714 14.4918571,0 22.5,0 C30.5081429,0 37,6.49185714 37,14.5 Z" id="Stroke-3"></path>
            <path d="M14.5222222,37 C6.51407937,37 0.0222222222,30.5081429 0.0222222222,22.5 C0.0222222222,14.4911667 6.51407937,8 14.5222222,8 C22.5303651,8 29.0222222,14.4911667 29.0222222,22.5 C29.0222222,30.5081429 22.5303651,37 14.5222222,37 Z" id="Stroke-5"></path>
            <path d="M31.5222222,37 C23.5140794,37 17.0222222,30.5081429 17.0222222,22.5 C17.0222222,14.4911667 23.5140794,8 31.5222222,8 C39.5303651,8 46.0222222,14.4911667 46.0222222,22.5 C46.0222222,30.5081429 39.5303651,37 31.5222222,37 Z" id="Stroke-7"></path>
        </g>
    </g>
</svg>