
<svg width="74px" height="74px" viewBox="0 0 74 59" version="1.1" xmlns="http://www.w3.org/2000/svg" xmlns:xlink="http://www.w3.org/1999/xlink">
    <g id="Symbols" stroke="none" stroke-width="1" fill="none" fill-rule="evenodd">
        <g id="USA" fill="#000000">
            <g id="Group-10">
                <polygon id="Fill-1" points="55.87 4.0006 73.161 4.0006 73.161 -0.0004 55.87 -0.0004"></polygon>
                <polygon id="Fill-2" points="0.0423 27.4426 0.0423 31.4426 73.1613 31.4276 73.1613 27.4286"></polygon>
                <polygon id="Fill-3" points="0 58.8706 73.161 58.8706 73.161 54.8706 0 54.8706"></polygon>
                <polygon id="Fill-4" points="0 45.1566 73.118 45.1566 73.118 41.1556 0 41.1556"></polygon>
                <polygon id="Fill-5" points="55.87 17.7136 73.161 17.7136 73.161 13.7136 55.87 13.7136"></polygon>
                <polygon id="Fill-6" points="9.5004 -0.0002 9.5004 14.7178 3.5004 14.7178 3.5004 -0.0002 0.5004 -0.0002 0.5004 17.7178 12.5004 17.7178 12.5004 -0.0002"></polygon>
                <polygon id="Fill-7" points="33.8238 -0.0002 33.8238 17.7178 36.8248 17.7178 36.8248 3.0008 42.8238 3.0008 42.8238 17.7178 45.8248 17.7178 45.8248 -0.0002"></polygon>
                <polygon id="Fill-8" points="35.324 10.5706 44.324 10.5706 44.324 7.5706 35.324 7.5706"></polygon>
                <polygon id="Fill-9" points="18.162 -0.0002 18.162 10.5698 25.162 10.5698 25.162 14.7178 17.663 14.7178 17.663 17.7178 28.162 17.7178 28.162 7.5708 21.162 7.5708 21.162 3.0008 28.662 3.0008 28.662 -0.0002"></polygon>
            </g>
        </g>
    </g>
</svg>
