
<svg width="48px" height="48px" viewBox="0 0 48 48" version="1.1" xmlns="http://www.w3.org/2000/svg" xmlns:xlink="http://www.w3.org/1999/xlink">
    <defs>
        <polygon id="path-1" points="0 0.0001 47.9998 0.0001 47.9998 48 0 48"></polygon>
    </defs>
    <g id="Symbols" stroke="none" stroke-width="1" fill="none" fill-rule="evenodd">
        <g id="1366px_ICON_GRID" transform="translate(-1034.000000, -136.000000)">
            <g id="icon_broad_spectrum_48px" transform="translate(1034.000000, 136.000000)">
                <g id="Group-3">
                    <mask id="mask-2" fill="white">
                        <use xlink:href="#path-1"></use>
                    </mask>
                    <g id="Clip-2"></g>
                    <path d="M36.4468,34.4521 C35.9408,28.3951 31.1048,23.5591 25.0478,23.0531 C25.5288,17.7061 30.0298,13.5001 35.4998,13.5001 C41.2898,13.5001 45.9998,18.2101 45.9998,24.0001 C45.9998,29.4711 41.7938,33.9721 36.4468,34.4521 M23.9998,46.0001 C18.5298,46.0001 14.0288,41.7941 13.5478,36.4471 C19.6048,35.9401 24.4408,31.1041 24.9468,25.0481 C30.2938,25.5281 34.4998,30.0291 34.4998,35.5001 C34.4998,41.2901 29.7898,46.0001 23.9998,46.0001 M1.9998,24.0001 C1.9998,18.5291 6.2058,14.0281 11.5528,13.5481 C12.0598,19.6041 16.8958,24.4401 22.9518,24.9471 C22.4708,30.2941 17.9698,34.5001 12.4998,34.5001 C6.7108,34.5001 1.9998,29.7901 1.9998,24.0001 M23.9998,2.0001 C29.4698,2.0001 33.9708,6.2061 34.4518,11.5531 C28.3958,12.0591 23.5598,16.8951 23.0528,22.9521 C17.7058,22.4721 13.4998,17.9711 13.4998,12.5001 C13.4998,6.7101 18.2108,2.0001 23.9998,2.0001 M47.9998,24.0001 C47.9998,17.4291 42.8998,12.0381 36.4518,11.5481 C35.9628,5.1001 30.5718,0.0001 23.9998,0.0001 C17.4288,0.0001 12.0378,5.1001 11.5488,11.5481 C5.0998,12.0381 -0.0002,17.4291 -0.0002,24.0001 C-0.0002,30.5711 5.0998,35.9621 11.5488,36.4521 C12.0378,42.8991 17.4288,48.0001 23.9998,48.0001 C30.5718,48.0001 35.9628,42.8991 36.4518,36.4521 C42.8998,35.9621 47.9998,30.5711 47.9998,24.0001" id="Fill-1" fill="#000000" mask="url(#mask-2)"></path>
                </g>
            </g>
        </g>
    </g>
</svg>
