
<svg width="73px" height="73px" viewBox="0 0 70 73" version="1.1" xmlns="http://www.w3.org/2000/svg" xmlns:xlink="http://www.w3.org/1999/xlink">
    <g id="Symbols" stroke="none" stroke-width="1" fill="none" fill-rule="evenodd">
        <g id="organically_grown_v4" transform="translate(2.000000, 0.000000)">
            <g id="Group-15">
                <path d="M41.9123,14.33 C41.9123,14.94 41.8223,15.56 41.6623,16.2 C40.4823,20.8 35.2233,25.82 29.0723,26.54 C28.5823,26.6 28.0823,26.63 27.5823,26.63 C27.0723,26.63 26.5723,26.6 26.0723,26.54 C19.9223,25.81 14.6723,20.79 13.5023,16.19 C13.3323,15.56 13.2523,14.93 13.2523,14.33 C13.2523,13.93 13.2823,13.55 13.3623,13.17 C13.9023,9.76 16.8513,7.16 20.4123,7.16 C20.4123,3.21 23.6123,0 27.5823,0 C31.5323,0 34.7423,3.21 34.7423,7.16 C38.3123,7.16 41.2723,9.77 41.8033,13.18 C41.8833,13.55 41.9123,13.94 41.9123,14.33" id="Fill-1" fill="#000000"></path>
                <path d="M24.131,63.5415 C24.131,63.5415 18.759,68.8635 12.131,68.8635 C5.504,68.8635 0.131,63.5415 0.131,63.5415 C0.131,63.5415 5.504,58.2195 12.131,58.2195 C18.759,58.2195 24.131,63.5415 24.131,63.5415 Z" id="Stroke-3" stroke="#000000" stroke-width="3"></path>
                <path d="M24.131,42.5854 C24.131,42.5854 18.759,47.9074 12.131,47.9074 C5.504,47.9074 0.131,42.5854 0.131,42.5854 C0.131,42.5854 5.504,37.2634 12.131,37.2634 C18.759,37.2634 24.131,42.5854 24.131,42.5854 Z" id="Stroke-5" stroke="#000000" stroke-width="3"></path>
                <path d="M65.3859,33.5078 C65.3859,33.5078 60.0129,38.8298 53.3859,38.8298 C46.7579,38.8298 41.3859,33.5078 41.3859,33.5078 C41.3859,33.5078 46.7579,28.1858 53.3859,28.1858 C60.0129,28.1858 65.3859,33.5078 65.3859,33.5078 Z" id="Stroke-7" stroke="#000000" stroke-width="3"></path>
                <path d="M65.3859,54.5835 C65.3859,54.5835 60.0129,59.9055 53.3859,59.9055 C46.7579,59.9055 41.3859,54.5835 41.3859,54.5835 C41.3859,54.5835 46.7579,49.2615 53.3859,49.2615 C60.0129,49.2615 65.3859,54.5835 65.3859,54.5835 Z" id="Stroke-9" stroke="#000000" stroke-width="3"></path>
                <path d="M36.7609,72.8735 L36.7609,66.3925 C36.7609,60.2065 28.7609,59.3225 28.7609,54.5835 C28.7609,49.2615 36.7609,47.3685 36.7609,42.5855 C36.7609,39.4615 33.9329,38.0665 30.4789,35.5075 C27.4589,33.2715 27.5749,31.3705 27.5749,30.0905 L27.5749,28.1855" id="Stroke-11" stroke="#000000" stroke-width="4"></path>
                <path d="M41.9123,14.33 C41.9123,14.94 41.8223,15.56 41.6623,16.2 C41.0323,16.07 40.3723,16.01 39.7023,16.01 C33.8723,16.01 29.1223,20.72 29.0723,26.54 L29.0723,26.63 L26.0723,26.63 L26.0723,26.54 C26.0223,20.72 21.2823,16.01 15.4523,16.01 C14.7823,16.01 14.1333,16.07 13.5023,16.19 C13.3323,15.56 13.2523,14.93 13.2523,14.33 C13.2523,13.93 13.2823,13.55 13.3623,13.17 C14.0423,13.06 14.7423,13.01 15.4523,13.01 C20.7323,13.01 25.3123,16.04 27.5723,20.44 C29.8323,16.04 34.4123,13.01 39.7023,13.01 C40.4223,13.01 41.1223,13.07 41.8033,13.18 C41.8833,13.55 41.9123,13.94 41.9123,14.33" id="Fill-13" fill="#FFFFFF"></path>
            </g>
        </g>
    </g>
</svg>
