<svg width="22px" height="304px" viewBox="0 0 22 304" version="1.1" xmlns="http://www.w3.org/2000/svg" xmlns:xlink="http://www.w3.org/1999/xlink">
    <g id="Home-page" stroke="none" stroke-width="1" fill="none" fill-rule="evenodd">
        <g id="product_expand-copy-2" transform="translate(-708.000000, -2584.000000)" fill="#FEFEFE">
            <g id="TINCTURE" transform="translate(0.000000, 2004.000000)">
                <g id="TINCTURE-1000" transform="translate(567.000000, 320.000000)">
                    <g id="Group-12" transform="translate(77.633128, 67.000000)">
                        <path d="M83.1433659,480.639653 C81.9540333,479.0419 80.386442,478.243932 78.436955,478.243932 C75.1435584,478.243932 73.1649745,480.123428 72.5012033,483.88242 L71.7410488,487.857717 C71.5082742,489.04649 71.2354915,489.844457 70.9227007,490.253439 C70.6117284,490.66242 70.1443607,490.867819 69.518779,490.867819 C68.7586246,490.867819 68.1512284,490.55154 67.6929535,489.917165 C67.2346785,489.284608 67.0055411,488.452103 67.0055411,487.419653 C67.0055411,486.230881 67.2492269,485.282045 67.7365987,484.569508 C68.2239705,483.85879 68.9059272,483.46435 69.782469,483.386189 L69.782469,478.62383 C67.7365987,478.838318 66.1580961,479.708994 65.0469612,481.239492 C63.9358263,482.768173 63.3793496,484.847616 63.3793496,487.477819 C63.3793496,489.91353 63.9849272,491.909358 65.1924453,493.467122 C66.401782,495.026704 67.9693733,495.806495 69.8988563,495.806495 C73.1358777,495.806495 75.1035503,493.877921 75.8055111,490.018956 L76.4783751,486.338125 C76.6729601,485.189342 76.9402872,484.380468 77.2821748,483.913321 C77.6222439,483.444355 78.1241641,483.211691 78.7879354,483.211691 C79.5662754,483.211691 80.1864014,483.557053 80.6428578,484.247776 C81.1011327,484.940318 81.3302702,485.850983 81.3302702,486.981589 C81.3302702,488.34486 81.0574875,489.426388 80.5119221,490.224355 C79.9663567,491.024141 79.1861981,491.471294 78.173265,491.569449 L78.173265,496.448141 C80.3373411,496.233653 82.0085898,495.284817 83.1870111,493.599814 C84.367251,491.914811 84.9564616,489.649964 84.9564616,486.805272 C84.9564616,484.311396 84.3527025,482.257401 83.1433659,480.639653 Z M63.73033,469.300876 L84.6054812,477.600468 L84.6054812,472.661792 L80.1318448,470.938618 L80.1318448,462.113712 L84.6054812,460.446886 L84.6054812,455.275546 L63.73033,463.604221 L63.73033,469.300876 Z M76.2728788,469.477192 L68.5549468,466.525256 L68.5549468,466.438007 L76.2728788,463.544238 L76.2728788,469.477192 Z M63.73033,452.44176 L84.6054812,452.44176 L84.6054812,447.386752 L63.73033,447.386752 L63.73033,452.44176 Z M84.6054812,438.121964 L69.8697595,438.121964 L69.8697595,438.063798 L84.6054812,428.362763 L84.6054812,423.65857 L63.73033,423.65857 L63.73033,428.479095 L76.8875492,428.479095 L76.8875492,428.537262 L63.73033,437.158586 L63.73033,442.944307 L84.6054812,442.944307 L84.6054812,438.121964 Z M67.6183929,400.573851 L63.73033,400.573851 L63.73033,420.092254 L67.6183929,420.092254 L67.6183929,412.876007 L84.6054812,412.876007 L84.6054812,407.819181 L67.6183929,407.819181 L67.6183929,400.573851 Z M63.73033,387.5119 L84.6054812,395.809675 L84.6054812,390.872817 L80.1318448,389.147825 L80.1318448,380.322918 L84.6054812,378.65791 L84.6054812,373.484752 L63.73033,381.813428 L63.73033,387.5119 Z M76.2728788,387.686398 L68.5549468,384.73628 L68.5549468,384.647213 L76.2728788,381.755262 L76.2728788,387.686398 Z M84.6054812,365.828624 L69.8697595,365.828624 L69.8697595,365.770457 L84.6054812,356.069423 L84.6054812,351.363412 L63.73033,351.363412 L63.73033,356.185755 L76.8875492,356.185755 L76.8875492,356.243921 L63.73033,364.865246 L63.73033,370.650967 L84.6054812,370.650967 L84.6054812,365.828624 Z M84.6054812,338.50686 C84.6054812,335.293176 83.6507417,332.701144 81.7394442,330.734398 C79.8299653,328.805825 77.2967232,327.840629 74.1378995,327.840629 C70.9808943,327.840629 68.456745,328.805825 66.5672702,330.734398 C64.6759768,332.682967 63.73033,335.273181 63.73033,338.50686 L63.73033,347.0682 L84.6054812,347.0682 L84.6054812,338.50686 Z M80.6883215,338.50686 L80.6883215,342.131342 L67.6183929,342.131342 L67.6183929,338.50686 C67.6183929,336.714613 68.1748696,335.345889 69.2860045,334.400688 C70.3971394,333.457305 72.0138315,332.984704 74.1378995,332.984704 C76.2637861,332.984704 77.8859339,333.457305 79.0061615,334.400688 C80.1282077,335.345889 80.6883215,336.714613 80.6883215,338.50686 Z M70.7190229,303.383551 L70.7190229,298.473959 C68.3603618,298.922929 66.5472661,299.920843 65.2797358,301.469519 C64.0140241,303.018195 63.3793496,305.039471 63.3793496,307.533347 C63.3793496,310.610704 64.3740972,313.084586 66.3617739,314.954994 C68.3494505,316.825401 70.9517975,317.759696 74.1688149,317.759696 C77.4240218,317.759696 80.0245503,316.825401 81.9740374,314.954994 C83.961714,313.084586 84.9564616,310.610704 84.9564616,307.533347 C84.9564616,305.059465 84.3236057,303.041825 83.0560754,301.484061 C81.7885451,299.924479 79.9754494,298.922929 77.6186068,298.473959 L77.6186068,303.383551 C79.9172558,303.830704 81.0683988,305.213969 81.0683988,307.533347 C81.0683988,309.149278 80.4682768,310.401669 79.2698515,311.286886 C78.0714261,312.173921 76.3710806,312.617439 74.1688149,312.617439 C71.9665492,312.617439 70.2643851,312.173921 69.0659598,311.286886 C67.8675344,310.401669 67.269231,309.149278 67.269231,307.533347 C67.269231,305.213969 68.4185555,303.830704 70.7190229,303.383551 Z M76.0692011,290.612431 L76.0692011,281.056811 L72.1793197,281.056811 L72.1793197,290.612431 L67.6183929,290.612431 L67.6183929,279.771701 L63.73033,279.771701 L63.73033,295.551106 L84.6054812,295.551106 L84.6054812,279.56812 L80.6883215,279.56812 L80.6883215,290.612431 L76.0692011,290.612431 Z M84.6054812,271.268527 L69.8697595,271.268527 L69.8697595,271.210361 L84.6054812,261.509326 L84.6054812,256.803315 L63.73033,256.803315 L63.73033,261.625658 L76.8875492,261.625658 L76.8875492,261.683825 L63.73033,270.305149 L63.73033,276.09087 L84.6054812,276.09087 L84.6054812,271.268527 Z M67.6183929,234.303894 L63.73033,234.303894 L63.73033,253.824114 L67.6183929,253.824114 L67.6183929,246.60605 L84.6054812,246.60605 L84.6054812,241.551042 L67.6183929,241.551042 L67.6183929,234.303894 Z M76.0692011,226.3842 L76.0692011,216.828581 L72.1793197,216.828581 L72.1793197,226.3842 L67.6183929,226.3842 L67.6183929,215.543471 L63.73033,215.543471 L63.73033,231.322876 L84.6054812,231.322876 L84.6054812,215.338071 L80.6883215,215.338071 L80.6883215,226.3842 L76.0692011,226.3842 Z M84.6054812,198.79887 L84.6054812,193.363964 L76.5947624,198.157224 C76.0692011,196.85212 75.2835869,195.837846 74.2415569,195.118039 C73.199527,194.396414 71.9756419,194.036511 70.5717203,194.036511 C68.3694546,194.036511 66.6800204,194.738141 65.4997805,196.139583 C64.3213592,197.542843 63.73033,199.549578 63.73033,202.159787 L63.73033,211.860822 L84.6054812,211.860822 L84.6054812,206.923964 L77.3840137,206.923964 L77.3840137,203.006833 L84.6054812,198.79887 Z M70.5717203,199.00427 C72.5212074,199.00427 73.4959509,200.271203 73.4959509,202.803251 L73.4959509,206.923964 L67.6183929,206.923964 L67.6183929,202.803251 C67.6183929,200.271203 68.6040477,199.00427 70.5717203,199.00427 Z" id="Fill-10"></path>
                    </g>
                </g>
            </g>
        </g>
    </g>
</svg>
