
<svg width="623px" height="45px" viewBox="0 0 623 45" version="1.1" xmlns="http://www.w3.org/2000/svg" xmlns:xlink="http://www.w3.org/1999/xlink">
    <g id="Page-1" stroke="none" stroke-width="1" fill="none" fill-rule="evenodd">
        <g id="logotype" fill="#FFFFFF">
            <path d="M19.8,44.28 C13.96,44.28 9.31,43.07 5.85,40.65 C2.39,38.23 0.44,34.8 0,30.36 L10.02,30.36 C10.22,32.44 11.14,34.04 12.78,35.16 C14.42,36.28 16.64,36.84 19.44,36.84 C21.76,36.84 23.63,36.37 25.05,35.43 C26.47,34.49 27.18,33.22 27.18,31.62 C27.18,30.26 26.7,29.23 25.74,28.53 C24.78,27.83 23.12,27.28 20.76,26.88 L13.2,25.5 C5.28,24.06 1.32,20.02 1.32,13.38 C1.32,9.42 2.92,6.2 6.12,3.72 C9.32,1.24 13.42,0 18.42,0 C23.82,0 28.09,1.14 31.23,3.42 C34.37,5.7 36.16,8.94 36.6,13.14 L26.82,13.14 C26.66,11.34 25.85,9.94 24.39,8.94 C22.93,7.94 20.98,7.44 18.54,7.44 C16.42,7.44 14.71,7.91 13.41,8.85 C12.11,9.79 11.46,11.04 11.46,12.6 C11.46,13.88 11.88,14.84 12.72,15.48 C13.56,16.12 15.2,16.68 17.64,17.16 L25.8,18.72 C33.52,20.08 37.38,24.14 37.38,30.9 C37.38,34.9 35.74,38.12 32.46,40.56 C29.14,43.04 24.92,44.28 19.8,44.28 Z" id="Path"></path>
            <path d="M67.5,0.72 L84.6,43.56 L73.98,43.56 L70.56,34.38 L52.44,34.38 L48.9,43.56 L38.76,43.56 L55.8,0.72 L67.5,0.72 Z M67.62,26.46 L61.68,10.62 L61.5,10.62 L55.44,26.46 L67.62,26.46 Z" id="Shape" fill-rule="nonzero"></path>
            <polygon id="Path" points="100.74 0.72 100.74 43.56 90.36 43.56 90.36 0.72"></polygon>
            <polygon id="Path" points="109.86 43.56 109.86 0.72 121.74 0.72 139.44 27.72 139.56 27.72 139.56 0.72 149.46 0.72 149.46 43.56 139.8 43.56 119.88 13.32 119.76 13.32 119.76 43.56"></polygon>
            <polygon id="Path" points="181.98 8.7 181.98 43.56 171.6 43.56 171.6 8.7 156.78 8.7 156.78 0.72 196.86 0.72 196.86 8.7"></polygon>
            <path d="M235.5,0.72 L252.6,43.56 L241.98,43.56 L238.56,34.38 L220.44,34.38 L216.9,43.56 L206.76,43.56 L223.8,0.72 L235.5,0.72 Z M235.62,26.46 L229.68,10.62 L229.5,10.62 L223.44,26.46 L235.62,26.46 Z" id="Shape" fill-rule="nonzero"></path>
            <polygon id="Path" points="258.42 43.56 258.42 0.72 270.3 0.72 288 27.72 288.12 27.72 288.12 0.72 298.02 0.72 298.02 43.56 288.36 43.56 268.44 13.32 268.32 13.32 268.32 43.56"></polygon>
            <path d="M306.83,43.56 L306.83,0.72 L324.41,0.72 C331.05,0.72 336.37,2.66 340.37,6.54 C344.33,10.42 346.31,15.6 346.31,22.08 C346.31,28.56 344.33,33.76 340.37,37.68 C336.33,41.6 331.01,43.56 324.41,43.56 L306.83,43.56 Z M332.84,32.07 C334.78,29.77 335.75,26.44 335.75,22.08 C335.75,17.72 334.78,14.4 332.84,12.12 C330.9,9.84 328.09,8.7 324.41,8.7 L316.97,8.7 L316.97,35.52 L324.41,35.52 C328.09,35.52 330.9,34.37 332.84,32.07 Z" id="Shape" fill-rule="nonzero"></path>
            <path d="M388.01,7.98 C384.69,7.98 382.12,9.21 380.3,11.67 C378.48,14.13 377.57,17.62 377.57,22.14 C377.57,26.66 378.48,30.15 380.3,32.61 C382.12,35.07 384.69,36.3 388.01,36.3 C392.77,36.3 395.61,33.94 396.53,29.22 L406.61,29.22 C405.69,34.06 403.63,37.78 400.43,40.38 C397.23,42.98 393.09,44.28 388.01,44.28 C381.69,44.28 376.61,42.24 372.77,38.16 C368.93,34.16 367.01,28.82 367.01,22.14 C367.01,15.54 368.93,10.2 372.77,6.12 C376.61,2.04 381.69,0 388.01,0 C393.13,0 397.28,1.3 400.46,3.9 C403.64,6.5 405.69,10.22 406.61,15.06 L396.53,15.06 C395.61,10.34 392.77,7.98 388.01,7.98 Z" id="Path"></path>
            <polygon id="Path" points="422.75 35.52 445.43 35.52 445.43 43.56 412.61 43.56 412.61 0.72 445.01 0.72 445.01 8.7 422.75 8.7 422.75 18.06 442.37 18.06 442.37 26.04 422.75 26.04"></polygon>
            <polygon id="Path" points="452.63 43.56 452.63 0.72 464.51 0.72 482.21 27.72 482.33 27.72 482.33 0.72 492.23 0.72 492.23 43.56 482.57 43.56 462.65 13.32 462.53 13.32 462.53 43.56"></polygon>
            <polygon id="Path" points="523.61 8.7 523.61 43.56 513.23 43.56 513.23 8.7 498.41 8.7 498.41 0.72 538.49 0.72 538.49 8.7"></polygon>
            <polygon id="Path" points="554.81 35.52 577.49 35.52 577.49 43.56 544.67 43.56 544.67 0.72 577.07 0.72 577.07 8.7 554.81 8.7 554.81 18.06 574.43 18.06 574.43 26.04 554.81 26.04 554.81 35.52"></polygon>
            <path d="M602.87,28.74 L594.83,28.74 L594.83,43.56 L584.69,43.56 L584.69,0.72 L604.61,0.72 C609.97,0.72 614.09,1.93 616.97,4.35 C619.85,6.77 621.29,10.24 621.29,14.76 C621.29,17.64 620.55,20.15 619.07,22.29 C617.59,24.43 615.51,26.04 612.83,27.12 L622.67,43.56 L611.51,43.56 L602.87,28.74 Z M603.29,8.7 L594.83,8.7 L594.83,20.76 L603.29,20.76 C608.49,20.76 611.09,18.76 611.09,14.76 C611.09,10.72 608.49,8.7 603.29,8.7 Z" id="Shape" fill-rule="nonzero"></path>
        </g>
    </g>
</svg>
