
<svg width="87px" height="131px" viewBox="0 0 87 131" version="1.1" xmlns="http://www.w3.org/2000/svg" xmlns:xlink="http://www.w3.org/1999/xlink">
  <g id="Page-1" stroke="none" stroke-width="1" fill="none" fill-rule="evenodd">
      <g id="logo" fill="#FFFFFF">
          <path d="M43.5,87 C19.51,87 0,67.49 0,43.5 C0,19.51 19.51,0 43.5,0 C67.49,0 87,19.51 87,43.5 L77,43.5 C77,25.03 61.97,10 43.5,10 C25.03,10 10,25.03 10,43.5 C10,61.97 25.03,77 43.5,77 L43.5,87 Z" id="Path"></path>
          <path d="M43.5,130.5 C19.51,130.5 0,110.99 0,87 L10,87 C10,105.47 25.03,120.5 43.5,120.5 C61.97,120.5 77,105.47 77,87 C77,68.53 61.97,53.5 43.5,53.5 L43.5,43.5 C67.49,43.5 87,63.01 87,87 C87,110.99 67.49,130.5 43.5,130.5 Z" id="Path"></path>
      </g>
  </g>
</svg>
